<svg width="20" height="18" viewBox="0 0 20 18" fill="none" xmlns="http://www.w3.org/2000/svg">
<path d="M12.381 12.75H16.4286L15.2913 11.6963C14.9828 11.4105 14.8095 11.023 14.8095 10.6188V8.25C14.8095 6.29067 13.4579 4.62382 11.5714 4.00606V3.75C11.5714 2.92157 10.8466 2.25 9.95239 2.25C9.05821 2.25 8.33334 2.92157 8.33334 3.75V4.00606C6.44684 4.62382 5.09524 6.29067 5.09524 8.25V10.6188C5.09524 11.023 4.92196 11.4105 4.61352 11.6963L3.4762 12.75H7.52382M12.381 12.75V13.5C12.381 14.7426 11.2936 15.75 9.95239 15.75C8.61112 15.75 7.52382 14.7426 7.52382 13.5V12.75M12.381 12.75H7.52382" stroke="#3F3F46" stroke-width="1.2" stroke-linecap="round" stroke-linejoin="round"/>
</svg>
