<svg width="26" height="24" viewBox="0 0 26 24" fill="none" xmlns="http://www.w3.org/2000/svg">
<path d="M7.59655 16.808H12.2465C12.3846 16.808 12.5023 16.763 12.5994 16.673C12.6965 16.583 12.7451 16.474 12.7451 16.346V15.692C12.7451 15.564 12.6965 15.455 12.5994 15.365C12.5023 15.2757 12.3846 15.231 12.2465 15.231H7.59655C7.45839 15.231 7.3411 15.2757 7.24467 15.365C7.14753 15.455 7.09896 15.564 7.09896 15.692V16.346C7.09896 16.474 7.14753 16.583 7.24467 16.673C7.3411 16.763 7.45839 16.808 7.59655 16.808ZM7.49293 9.50002H12.3501C12.4695 9.50002 12.5789 9.45402 12.6782 9.36202C12.7782 9.26935 12.8282 9.16802 12.8282 9.05802C12.8282 8.94735 12.7782 8.84602 12.6782 8.75402C12.5789 8.66135 12.4695 8.61502 12.3501 8.61502H7.49293C7.3742 8.61502 7.26482 8.66135 7.1648 8.75402C7.0655 8.84602 7.01585 8.94735 7.01585 9.05802C7.01585 9.16802 7.0655 9.26935 7.1648 9.36202C7.26482 9.45402 7.3742 9.50002 7.49293 9.50002ZM7.49293 7.38502H12.3501C12.4695 7.38502 12.5789 7.33868 12.6782 7.24602C12.7782 7.15402 12.8282 7.05268 12.8282 6.94202C12.8282 6.83202 12.7782 6.73068 12.6782 6.63802C12.5789 6.54602 12.4695 6.50002 12.3501 6.50002H7.49293C7.3742 6.50002 7.26482 6.54602 7.1648 6.63802C7.0655 6.73068 7.01585 6.83202 7.01585 6.94202C7.01585 7.05268 7.0655 7.15402 7.1648 7.24602C7.26482 7.33868 7.3742 7.38502 7.49293 7.38502ZM16.1905 10.192V9.19202H17.6854C17.8789 9.19202 18.038 9.13435 18.1625 9.01902C18.2869 8.90368 18.3492 8.75635 18.3492 8.57702V7.42302C18.3492 7.24302 18.2869 7.09568 18.1625 6.98102C18.038 6.86635 17.8789 6.80868 17.6854 6.80802H16.1905V5.80802H17.6854C18.1646 5.80802 18.5748 5.96602 18.9158 6.28202C19.2576 6.59868 19.4285 6.97902 19.4285 7.42302V7.50002H21.2548C21.4081 7.50002 21.5365 7.54802 21.6402 7.64402C21.7431 7.74002 21.7945 7.85902 21.7945 8.00102C21.7945 8.14302 21.7431 8.26168 21.6402 8.35702C21.5365 8.45235 21.4081 8.50002 21.2548 8.50002H19.4285V8.57702C19.4285 9.02102 19.2576 9.40102 18.9158 9.71702C18.5748 10.0337 18.1646 10.192 17.6854 10.192H16.1905ZM12.0802 14.231H11.0009V10.808H14.4473C14.6408 10.808 14.7999 10.7504 14.9244 10.635C15.0488 10.5197 15.1111 10.372 15.1111 10.192V5.80802C15.1111 5.62802 15.0488 5.48035 14.9244 5.36502C14.7999 5.24968 14.6408 5.19202 14.4473 5.19202H6.89172C6.29807 5.19202 5.78969 5.38802 5.36658 5.78002C4.94347 6.17202 4.73227 6.64268 4.73299 7.19202V8.80802C4.73299 9.35802 4.94419 9.82868 5.36658 10.22C5.78897 10.6114 6.29735 10.8073 6.89172 10.808H8.84213V14.231H7.76277V11.808H6.89172C6.00089 11.808 5.23813 11.514 4.60347 10.926C3.97024 10.3393 3.65363 9.63335 3.65363 8.80802V7.19202C3.65363 6.36735 3.97024 5.66135 4.60347 5.07402C5.23669 4.48668 5.99945 4.19268 6.89172 4.19202H14.4473C14.9265 4.19202 15.3367 4.35035 15.6778 4.66702C16.0196 4.98302 16.1905 5.36402 16.1905 5.80802V10.192C16.1905 10.6367 16.0196 11.017 15.6778 11.333C15.3367 11.6497 14.9265 11.808 14.4473 11.808H12.0802V14.231ZM7.32671 17.808C6.96404 17.808 6.65534 17.69 6.40061 17.454C6.1466 17.2187 6.01959 16.9327 6.01959 16.596V15.442C6.01959 15.106 6.1466 14.82 6.40061 14.584C6.65534 14.3487 6.96404 14.231 7.32671 14.231H12.5163C12.8797 14.231 13.1884 14.3487 13.4424 14.584C13.6971 14.82 13.8245 15.106 13.8245 15.442V16.596C13.8245 16.9327 13.6971 17.2187 13.4424 17.454C13.1884 17.69 12.8797 17.808 12.5163 17.808H7.32671ZM12.2465 16.808H7.09788H12.7451H12.2465Z" fill="black"/>
</svg>
